<?xml version="1.0" standalone="no"?>
<!DOCTYPE svg PUBLIC "-//W3C//DTD SVG 20010904//EN"
 "http://www.w3.org/TR/2001/REC-SVG-20010904/DTD/svg10.dtd">
<svg version="1.0" xmlns="http://www.w3.org/2000/svg"
 width="724.000000pt" height="724.000000pt" viewBox="0 0 724.000000 724.000000"
 preserveAspectRatio="xMidYMid meet">
<metadata>
Created by potrace 1.14, written by Peter Selinger 2001-2017
</metadata>
<g transform="translate(0.000000,724.000000) scale(0.100000,-0.100000)"
fill="#000000" stroke="none">
<path d="M3385 7195 c-5 -2 -71 -8 -145 -14 -75 -6 -169 -17 -210 -26 -41 -9
-118 -25 -170 -36 -116 -25 -217 -52 -330 -90 -175 -58 -430 -156 -440 -170
-9 -11 -89 -49 -105 -49 -8 0 -15 -4 -15 -8 0 -5 -19 -17 -42 -28 -24 -10 -49
-24 -56 -31 -7 -7 -22 -13 -33 -13 -10 0 -19 -4 -19 -10 0 -5 -11 -12 -25 -16
-14 -3 -25 -10 -25 -15 0 -5 -7 -9 -15 -9 -8 0 -15 -4 -15 -10 0 -5 -11 -12
-25 -16 -14 -3 -25 -10 -25 -14 0 -4 -15 -13 -32 -21 -18 -7 -40 -19 -48 -26
-39 -35 -64 -53 -84 -59 -11 -4 -28 -15 -37 -25 -9 -11 -19 -19 -23 -19 -3 0
-14 -7 -23 -15 -63 -55 -88 -75 -95 -75 -4 0 -21 -13 -38 -30 -17 -16 -34 -30
-38 -30 -4 0 -14 -9 -22 -20 -8 -11 -20 -20 -27 -20 -6 0 -15 -9 -18 -20 -3
-11 -11 -20 -16 -20 -5 0 -36 -27 -68 -60 -33 -33 -64 -60 -70 -60 -6 0 -17
-11 -23 -25 -6 -14 -16 -25 -22 -25 -6 0 -20 -12 -31 -25 -11 -14 -40 -47 -65
-73 -25 -27 -61 -67 -80 -91 -19 -24 -42 -51 -51 -61 -8 -10 -24 -31 -35 -45
-10 -15 -24 -32 -29 -39 -6 -6 -21 -28 -34 -48 -12 -21 -26 -38 -30 -38 -4 0
-18 -19 -31 -42 -13 -24 -28 -46 -33 -49 -5 -4 -14 -16 -20 -27 -7 -12 -38
-64 -69 -115 -32 -51 -58 -99 -58 -105 0 -7 -3 -12 -8 -12 -4 0 -40 -69 -81
-152 -41 -84 -79 -164 -86 -178 -7 -14 -30 -74 -50 -135 -21 -60 -46 -135 -57
-165 -11 -30 -22 -66 -24 -80 -3 -14 -11 -45 -19 -70 -15 -46 -29 -107 -40
-169 -3 -19 -7 -37 -9 -40 -3 -5 -11 -52 -21 -131 -2 -17 -15 -94 -21 -125
-14 -67 -19 -191 -19 -425 0 -262 6 -388 25 -492 11 -64 16 -96 25 -168 4 -30
9 -64 12 -75 2 -11 8 -45 14 -75 6 -30 20 -86 31 -125 11 -38 29 -101 40 -140
24 -86 106 -312 128 -354 5 -9 16 -34 25 -56 29 -68 156 -319 169 -335 7 -8
31 -46 53 -85 23 -38 51 -81 63 -95 12 -14 28 -37 36 -52 8 -16 19 -28 24 -28
6 0 10 -6 10 -12 0 -7 13 -27 28 -44 15 -17 38 -46 52 -64 14 -19 34 -44 45
-57 11 -12 34 -39 50 -59 17 -20 55 -63 85 -96 30 -33 66 -73 80 -89 14 -16
31 -29 38 -29 6 0 12 -7 12 -15 0 -8 4 -15 10 -15 5 0 37 -27 69 -60 33 -33
63 -60 68 -60 5 0 15 -9 23 -20 8 -11 18 -20 23 -20 5 0 24 -16 43 -35 18 -19
38 -35 44 -35 5 0 10 -4 10 -10 0 -5 7 -10 15 -10 9 0 18 -7 21 -15 4 -8 11
-15 18 -15 6 0 18 -9 26 -20 8 -11 20 -20 27 -20 7 0 13 -4 13 -10 0 -5 7 -10
15 -10 9 0 18 -7 21 -15 4 -8 12 -15 18 -15 7 0 22 -9 34 -20 12 -11 26 -20
32 -20 5 0 10 -5 10 -11 0 -5 13 -15 30 -20 16 -6 30 -15 30 -19 0 -4 10 -10
23 -14 13 -3 34 -14 48 -26 40 -33 42 -34 107 -64 34 -16 62 -33 62 -37 0 -4
11 -10 25 -13 14 -4 25 -11 25 -16 0 -6 5 -10 11 -10 19 0 129 -52 129 -61 0
-5 6 -9 13 -9 6 0 50 -17 97 -36 394 -167 796 -265 1215 -295 165 -12 435 -6
575 12 41 5 111 14 155 20 89 11 334 57 347 65 5 3 64 21 131 39 127 35 306
96 392 134 28 12 59 26 70 30 11 4 45 20 75 34 30 14 81 37 113 51 31 14 57
30 57 36 0 5 5 10 11 10 16 0 103 43 107 53 2 4 8 7 13 7 15 0 199 113 199
122 0 4 5 8 12 8 7 0 22 10 33 23 11 12 32 28 48 35 15 6 27 16 27 22 0 5 6
10 13 10 7 0 20 8 29 17 20 22 34 32 73 57 17 11 37 28 46 38 9 10 22 18 28
18 6 0 14 7 17 15 4 8 11 15 18 15 6 0 25 16 41 35 17 19 34 35 38 35 9 0 234
227 322 324 33 37 66 73 73 81 6 7 12 16 12 20 0 3 11 18 25 33 14 15 46 58
71 95 25 38 54 76 65 85 10 9 19 20 19 23 0 4 21 38 46 76 25 37 55 86 66 108
12 22 24 42 27 45 14 11 161 319 191 400 17 47 37 101 45 120 15 39 93 301
100 340 3 14 7 39 9 55 3 17 16 86 30 155 14 69 28 143 30 165 3 22 8 60 11
85 25 196 25 615 0 840 -2 25 -7 68 -10 95 -3 28 -7 57 -10 65 -2 8 -6 31 -9
51 -10 66 -57 284 -66 304 -5 11 -12 31 -15 45 -19 72 -68 222 -90 270 -13 30
-36 87 -51 125 -51 137 -228 475 -287 550 -4 6 -22 33 -40 60 -17 28 -40 59
-49 69 -10 11 -18 23 -18 27 0 4 -6 14 -13 21 -7 7 -26 31 -42 53 -30 39 -45
57 -125 143 -22 24 -40 47 -40 52 0 16 -318 326 -370 360 -12 8 -37 29 -56 45
-70 64 -249 195 -266 195 -6 0 -19 9 -29 21 -17 19 -68 52 -129 82 -14 6 -33
19 -42 27 -9 8 -41 27 -70 42 -272 136 -361 175 -595 260 -32 11 -74 27 -93
34 -19 8 -53 18 -75 23 -22 6 -60 16 -85 24 -104 34 -368 82 -559 102 -126 13
-567 20 -596 10z"/>
</g>
</svg>
